PathFileType	4	(X/Y/Z)	C:\Users\Basilio\Documents\Thesis Gigler\squatting_fais\c3dfiles\039\SJ_pre2\markers_experimental.trc
DataRate	CameraRate	NumFrames	NumMarkers	Units	OrigDataRate	OrigDataStartFrame	OrigNumFrames
200.000000	200.000000	4	61	mm	200.000000	1299	1732
Frame#	Time	FHD			LBHD			RBHD			C7			T10			CLAV			LSHO			LUUPA			LMUPA			LDUPA			LLEP			LMEP			LRAD			LUL			LRFIN			RSHO			RUPA1			RMUPA			RDUPA			RLEP			RMEP			RRAD			RUL			RUFIN			LASI			RASI			USACR			LSACR			RSACR			LTHI1			LTHI2			LTHI3			LTHI4			LLFC			LMFC			LTIB1			LTIB2			LTIB3			LTIB4			LLMAL			LMMAL			LHEE			LMT1			LMT2			LMT5			RTHI			RTHI2			RTHI3			RTHI4			RLFC			RMFC			RTIB1			RTIB2			RTIB3			RTIB4			RLMAL			RMMAL			RHEE			RMT1			RMT2			RMT5			
		X1	Y1	Z1	X2	Y2	Z2	X3	Y3	Z3	X4	Y4	Z4	X5	Y5	Z5	X6	Y6	Z6	X7	Y7	Z7	X8	Y8	Z8	X9	Y9	Z9	X10	Y10	Z10	X11	Y11	Z11	X12	Y12	Z12	X13	Y13	Z13	X14	Y14	Z14	X15	Y15	Z15	X16	Y16	Z16	X17	Y17	Z17	X18	Y18	Z18	X19	Y19	Z19	X20	Y20	Z20	X21	Y21	Z21	X22	Y22	Z22	X23	Y23	Z23	X24	Y24	Z24	X25	Y25	Z25	X26	Y26	Z26	X27	Y27	Z27	X28	Y28	Z28	X29	Y29	Z29	X30	Y30	Z30	X31	Y31	Z31	X32	Y32	Z32	X33	Y33	Z33	X34	Y34	Z34	X35	Y35	Z35	X36	Y36	Z36	X37	Y37	Z37	X38	Y38	Z38	X39	Y39	Z39	X40	Y40	Z40	X41	Y41	Z41	X42	Y42	Z42	X43	Y43	Z43	X44	Y44	Z44	X45	Y45	Z45	X46	Y46	Z46	X47	Y47	Z47	X48	Y48	Z48	X49	Y49	Z49	X50	Y50	Z50	X51	Y51	Z51	X52	Y52	Z52	X53	Y53	Z53	X54	Y54	Z54	X55	Y55	Z55	X56	Y56	Z56	X57	Y57	Z57	X58	Y58	Z58	X59	Y59	Z59	X60	Y60	Z60	X61	Y61	Z61	

1300	6.495	-196.3516387939454	1728.489135742188	-817.6157836914065	-322.4575805664063	1634.419189453125	-941.8909301757815	-306.7814636230469	1652.005615234375	-802.428894042969	-316.8459472656251	1496.439208984375	-862.6311645507815	-302.5185546875001	1182.49853515625	-867.3442382812502	-157.4467926025391	1453.729125976563	-878.6721191406252	-245.4584350585938	1485.329956054688	-1061.9208984375	-344.4071044921876	1334.158935546875	-1202.245361328125	-305.3495788574219	1303.37060546875	-1213.71826171875	-349.2232666015626	1279.155395507813	-1246.136840820313	-343.0230102539063	1212.730102539063	-1275.69091796875	-410.0950622558595	1190.844970703125	-1221.35498046875	-299.3854064941407	977.8433837890627	-1100.877319335938	-255.6308135986329	960.478942871094	-1160.926025390625	-243.3792877197266	991.5549316406252	-1061.333129882813	-177.6243591308594	1502.371826171875	-685.2399902343751	-275.1866760253907	1380.5068359375	-521.0625000000001	-240.5338592529297	1345.3544921875	-508.7491149902345	-286.0973205566407	1329.671630859375	-473.4610290527345	-277.4221191406251	1264.400146484375	-442.8106689453126	-357.4028625488282	1249.640869140625	-480.6015625000001	-257.0364990234376	1053.09375	-654.3540649414064	-242.1990509033204	1005.166931152344	-596.0046997070314	-203.6469879150391	1025.878540039063	-700.5688476562501	-156.0744781494141	991.4573364257815	-983.9831542968752	-151.2818908691407	984.9376220703127	-765.0133666992189	-327.1927795410157	1061.966796875	-866.8645629882815	-336.0218505859376	1031.552368164063	-894.2235107421877	-335.8968505859376	1031.813842773438	-835.4971923828127	-189.6556243896485	718.6882324218751	-1076.860961914063	-141.4752197265625	649.2693481445314	-1089.303466796875	-94.80332946777345	660.9182739257814	-1087.949829101563	-155.8947143554688	591.2608642578126	-1077.596069335938	-132.6221466064453	478.4435119628907	-1082.899169921875	-88.44497680664064	448.2988891601564	-974.9427490234377	-121.0220413208008	326.0342712402344	-1064.062377929688	-200.7354583740235	315.4804992675782	-1099.459350585938	-163.780029296875	297.2545776367188	-1085.46044921875	-194.9153137207032	223.4263763427735	-1040.82421875	-329.6244506835938	97.90458679199222	-1059.996948242188	-298.7324523925782	88.64155578613283	-977.1256103515627	-401.6888732910157	42.9754867553711	-1009.462158203125	-171.1528930664063	51.44228363037111	-1053.868530273438	-186.7825164794922	52.28238677978517	-1093.803955078125	-242.6268463134766	32.96282577514649	-1134.713256835938	-165.4588012695313	728.4810791015626	-664.8079833984376	-114.3963317871094	685.9894409179689	-654.8386230468751	-83.51162719726564	695.3588867187501	-659.6398925781251	-121.7481155395508	600.9011840820314	-655.2627563476564	-128.6787109375	468.415252685547	-667.1477050781251	-87.29093170166017	448.9277954101564	-774.8588867187502	-161.4082489013672	264.4064331054688	-680.4631958007814	-264.7409667968751	232.9950256347657	-676.2583007812501	-223.9652099609376	209.0948486328126	-675.4117431640626	-222.7043914794922	157.3164215087891	-704.8168945312501	-320.0830993652344	95.18215942382814	-687.3165283203126	-279.5630798339844	94.77490997314455	-769.069519042969	-388.9543762207032	45.71749496459962	-741.5565795898439	-158.1408233642578	47.90664291381837	-697.2930908203126	-170.9880981445313	55.3379592895508	-653.7785644531251	-233.5840911865235	32.47669219970704	-611.5374755859376	
1301	6.5	-197.5935974121094	1732.657104492188	-817.5357666015627	-323.4910888671876	1638.448852539063	-941.6792602539065	-307.9844970703126	1656.520263671875	-802.1895141601565	-317.8437194824219	1500.203369140625	-862.1938476562502	-302.3482360839844	1186.808471679688	-867.0894165039065	-158.3641967773438	1458.389892578125	-878.298767089844	-246.1312561035157	1489.88916015625	-1061.4150390625	-344.5145263671876	1338.442138671875	-1202.04248046875	-305.5920715332032	1307.92578125	-1213.045776367188	-349.0704040527344	1283.671752929688	-1245.895874023438	-342.6662292480469	1217.197265625	-1275.529663085938	-409.7442321777345	1195.4130859375	-1221.428588867188	-299.4530334472657	982.3233032226565	-1100.959594726563	-255.4371795654297	964.893005371094	-1160.392333984375	-243.0037384033204	996.1257324218752	-1060.88232421875	-178.955062866211	1507.192016601563	-684.7256469726564	-276.0893859863282	1385.0927734375	-520.4570312500001	-241.6062622070313	1349.663818359375	-508.628143310547	-286.9744873046876	1333.978271484375	-473.1605224609376	-278.1478576660157	1268.5830078125	-442.6753845214845	-357.3903198242188	1254.265502929688	-480.8073120117189	-255.9799194335938	1057.422485351563	-653.8948974609376	-241.1181793212891	1009.825988769531	-595.8869018554689	-202.5262298583985	1030.4326171875	-700.3024902343751	-155.4165802001953	995.776794433594	-983.818298339844	-150.7323303222657	989.0780029296877	-764.5613403320314	-326.7944335937501	1066.138793945313	-866.3521118164065	-335.5869445800782	1035.823486328125	-893.9749755859377	-335.6343078613282	1035.957153320313	-835.4367675781252	-191.1618041992188	722.5899658203126	-1076.351806640625	-143.7212066650391	652.7977294921876	-1088.596923828125	-97.05512237548831	663.9205322265626	-1087.462768554688	-158.5595855712891	594.8127441406251	-1077.136108398438	-136.7290191650391	481.3397521972657	-1082.33349609375	-93.2152557373047	451.0210266113282	-974.4421386718752	-124.2242965698242	328.7569274902344	-1064.048583984375	-203.5475616455079	316.6712646484376	-1099.387329101563	-166.4957885742188	299.1661071777344	-1085.121948242188	-196.9360809326172	225.1139373779297	-1040.687255859375	-330.1805725097657	98.28115844726565	-1060.22265625	-298.8500671386719	89.10417938232423	-977.452331542969	-401.7413024902345	42.96296310424805	-1009.592834472656	-171.2454223632813	51.60247039794923	-1053.897583007813	-186.5637969970703	52.2179298400879	-1093.801147460938	-242.2335205078126	32.44953918457032	-1134.487426757813	-166.97265625	731.6841430664064	-665.0926513671876	-116.6082000732422	688.2413330078126	-655.2315063476564	-85.38881683349611	697.6804809570314	-659.7872314453126	-124.6851806640625	603.2983398437501	-656.0868530273439	-132.8725738525391	470.7514038085939	-667.9931030273439	-91.32956695556642	451.4266052246095	-775.588073730469	-163.720199584961	266.3244018554688	-680.3563842773439	-266.4663391113282	233.6257629394532	-676.1286621093751	-225.6915740966797	209.9693298339844	-675.5613403320314	-223.7644195556641	158.2462921142578	-704.4487915039064	-320.4529418945313	95.27900695800783	-686.9309692382814	-279.8640441894532	95.10474395751955	-768.6522216796877	-389.1457824707032	45.66550064086915	-741.2730102539064	-158.2951202392578	48.06250000000001	-697.3140869140626	-171.0459747314453	55.35045242309572	-653.7470092773439	-233.586166381836	32.48880767822266	-611.5240478515626	
1302	6.505	-199.0010528564454	1737.204223632813	-817.5662841796877	-324.8739929199219	1642.726684570313	-941.4945068359377	-309.5771789550782	1660.979125976563	-802.1998291015627	-318.8272094726563	1504.265258789063	-861.8912353515627	-302.1305541992188	1191.0185546875	-866.9182128906252	-159.1483764648438	1462.846801757813	-877.8789062500002	-246.9607849121094	1494.732666015625	-1060.741821289063	-344.4696350097657	1343.25927734375	-1202.011596679688	-305.1011657714844	1312.91357421875	-1212.957763671875	-348.7265625000001	1288.442993164063	-1245.919799804688	-342.6494140625001	1222.0654296875	-1275.36474609375	-409.6517333984376	1200.299072265625	-1221.542114257813	-299.0256958007813	987.2537231445315	-1100.554809570313	-254.8796997070313	970.0581665039065	-1160.256958007813	-242.4951782226563	1000.869140625	-1060.479614257813	-180.350814819336	1511.952514648438	-684.3922729492189	-277.3592224121094	1389.451049804688	-520.4251708984376	-242.7275543212891	1354.294555664063	-508.4441528320314	-288.1522827148438	1338.548461914063	-472.735809326172	-279.0029296875001	1273.180297851563	-442.2001342773439	-357.9918518066407	1258.052124023438	-480.4455566406251	-255.6400146484376	1062.291259765625	-653.7410278320314	-240.4984130859376	1014.336120605469	-595.4751586914064	-202.1183624267579	1035.237182617188	-700.2846069335939	-155.0656433105469	1000.288757324219	-983.6307373046877	-149.8799285888672	993.5137329101565	-764.4893798828126	-326.2253417968751	1070.407958984375	-866.1128540039065	-335.1184692382813	1039.918090820313	-893.6199951171877	-334.7202148437501	1040.17333984375	-834.883239746094	-192.6907043457032	726.2410888671876	-1075.832153320313	-145.976791381836	656.3520507812501	-1087.945922851563	-99.27836608886722	666.9751586914064	-1086.838623046875	-161.2185211181641	598.3487548828126	-1076.644409179688	-141.2883453369141	484.1555786132814	-1081.643920898438	-96.97973632812503	454.1138916015626	-973.6821289062502	-126.9881668090821	331.4001159667969	-1063.608032226563	-206.4804229736329	318.5002746582032	-1098.989868164063	-169.010009765625	300.7720947265626	-1085.08154296875	-198.9121856689454	226.9850616455079	-1040.467041015625	-330.5205688476563	98.95293426513675	-1060.368286132813	-298.5291748046876	89.35415649414064	-977.8098144531252	-401.801239013672	43.03633499145509	-1009.698364257813	-171.2420501708985	51.71588516235353	-1053.985717773438	-186.8299102783203	52.72317123413087	-1093.9423828125	-242.1542663574219	32.41396713256837	-1134.517700195313	-168.8116912841797	735.0696411132814	-665.2757568359376	-118.6528625488282	691.3289184570314	-655.2901611328126	-87.46251678466798	700.0977783203126	-660.0256347656251	-127.6349258422852	606.0541381835939	-656.9769897460939	-136.6831207275391	473.6055908203126	-668.4960937500001	-95.42312622070314	454.1485290527345	-776.3092041015627	-165.9902038574219	268.2232666015626	-680.5164184570314	-268.2683105468751	234.5263977050782	-676.2824707031251	-227.4425506591797	211.4668273925782	-675.5626831054689	-224.5316009521485	159.5325317382813	-704.2803344726564	-320.7594909667969	95.46028137207033	-686.4331665039064	-280.2977294921876	95.72217559814455	-768.1345825195315	-389.2023010253907	45.66901016235352	-741.0096435546876	-158.4176330566407	48.30173110961915	-697.3415527343751	-171.0384521484375	55.58926391601564	-653.6408691406251	-233.5754547119141	32.51386260986329	-611.4849243164064	
1303	6.51	-200.3329315185547	1741.437377929688	-817.5559692382815	-326.4174804687501	1647.134155273438	-941.3919067382815	-310.7473144531251	1665.277099609375	-802.2484130859377	-320.0586242675782	1508.448364257813	-861.4219360351565	-301.9230041503907	1195.470825195313	-866.7232666015627	-160.4345092773438	1467.97119140625	-877.3288574218752	-247.7776031494141	1499.56103515625	-1060.152954101563	-344.4134521484376	1348.262573242188	-1202.0595703125	-305.2764282226563	1317.696899414063	-1212.538330078125	-348.4412841796876	1293.234741210938	-1245.836669921875	-342.1505737304688	1226.871704101563	-1275.393798828125	-409.4986877441407	1205.250854492188	-1221.503662109375	-298.4752807617188	992.1335449218752	-1100.378295898438	-254.4149017333985	975.0228271484377	-1159.956298828125	-242.0897369384766	1005.842956542969	-1059.998779296875	-181.5328369140625	1516.91455078125	-683.9899291992189	-278.3947143554688	1394.268432617188	-520.0093994140626	-243.6835174560547	1359.406005859375	-507.7445373535157	-289.2474365234376	1343.028076171875	-472.5769958496095	-279.9243774414063	1277.979370117188	-441.8356323242189	-358.6241149902344	1262.699340820313	-480.4446105957032	-255.3421020507813	1067.029052734375	-653.4611206054689	-239.7895202636719	1019.441955566406	-595.1645507812501	-201.2760314941407	1040.218994140625	-700.0147094726564	-154.4421081542969	1004.69677734375	-983.4088134765627	-149.4508056640625	998.406433105469	-764.3076782226564	-325.3450927734376	1074.338623046875	-865.8408203125002	-334.3612976074219	1044.19580078125	-893.3710937500002	-334.4516601562501	1044.5107421875	-834.6478271484377	-194.3064422607422	730.4570312500001	-1075.2314453125	-148.2693786621094	659.5799560546876	-1087.346435546875	-101.3586883544922	670.0780029296876	-1086.068115234375	-164.300033569336	602.2413940429689	-1076.026123046875	-145.6722717285157	487.0870361328126	-1081.046630859375	-101.5821990966797	456.8574829101564	-973.1676025390627	-130.290267944336	334.3618469238282	-1063.490478515625	-209.6078491210938	321.0907592773438	-1098.61474609375	-172.3755798339844	303.4653015136719	-1084.708862304688	-200.6811218261719	228.7153930664063	-1040.370849609375	-330.8676452636719	99.29603576660159	-1060.72705078125	-298.5521850585938	89.74643707275392	-978.0579223632815	-401.8493652343751	43.13006973266602	-1009.819946289063	-171.3370361328125	51.86499404907228	-1054.03173828125	-186.459213256836	52.54401016235353	-1093.904418945313	-242.6795959472657	32.88719940185548	-1134.474609375	-170.2616882324219	738.4017333984376	-665.8265380859376	-121.1296768188477	693.8266601562501	-655.9881591796876	-89.69453430175783	702.6849365234376	-660.3740844726564	-130.424789428711	608.7982177734376	-657.8314819335939	-140.5387420654297	476.1445617675782	-669.2470092773439	-99.52558135986331	456.9143676757814	-777.2941894531252	-168.3493041992188	270.4517822265626	-680.5752563476564	-270.3294372558594	235.1410064697266	-676.3768920898439	-229.008529663086	212.9471282958985	-675.3946533203126	-225.8274078369141	160.8739166259766	-703.9309692382814	-321.1791992187501	95.86319732666017	-685.9998168945314	-280.6377258300782	96.14971923828128	-767.7514038085939	-389.2917480468751	45.73500442504884	-740.7622070312501	-158.463607788086	48.44319152832033	-697.3216552734376	-171.0830535888672	55.67629241943361	-653.5927124023439	-233.5671691894532	32.52769088745118	-611.5035400390626	
